<svg width="16" height="16" fill="none" xmlns="http://www.w3.org/2000/svg"><path d="M13.667 6h-1V4.667A4.672 4.672 0 0 0 8 0a4.672 4.672 0 0 0-4.667 4.667V6h-1A.333.333 0 0 0 2 6.333v8.334C2 15.402 2.598 16 3.333 16h9.334c.735 0 1.333-.598 1.333-1.333V6.333A.333.333 0 0 0 13.667 6zm-4.669 6.963a.334.334 0 0 1-.331.37H7.333a.333.333 0 0 1-.331-.37l.21-1.89A1.319 1.319 0 0 1 6.667 10c0-.735.598-1.333 1.333-1.333S9.333 9.265 9.333 10c0 .431-.204.824-.545 1.072l.21 1.891zM10.667 6H5.333V4.667A2.67 2.67 0 0 1 8 2a2.67 2.67 0 0 1 2.667 2.667V6z" fill="#fff"/></svg>