<svg width="19" height="19" fill="none" xmlns="http://www.w3.org/2000/svg"><path d="M18.316 16.026l-2.179-4.672a8.056 8.056 0 0 1-5.256 3.377l1.824 3.912a.62.62 0 0 0 1.143-.05l.934-2.568.193-.09 2.568.935a.62.62 0 0 0 .773-.844zM9.5 0a6.818 6.818 0 0 0-6.81 6.81 6.818 6.818 0 0 0 6.81 6.81 6.818 6.818 0 0 0 6.81-6.81A6.818 6.818 0 0 0 9.5 0zm3.314 6.31l-1.208 1.177.286 1.663a.62.62 0 0 1-.899.652L9.5 9.017l-1.493.785a.62.62 0 0 1-.898-.652l.285-1.663L6.187 6.31a.62.62 0 0 1 .343-1.056l1.669-.243.746-1.512a.62.62 0 0 1 1.11 0l.747 1.512 1.669.243a.62.62 0 0 1 .343 1.056zm-9.951 5.044L.684 16.026a.62.62 0 0 0 .773.844l2.568-.935.193.09.935 2.568a.62.62 0 0 0 1.142.05L8.12 14.73a8.056 8.056 0 0 1-5.256-3.377z" fill="#fff"/></svg>