<svg width="18" height="18" fill="none" xmlns="http://www.w3.org/2000/svg"><path d="M17.596 14.225l-2.78-2.78c-.553-.551-1.47-.535-2.043.038l-1.4 1.4c-.089-.048-.18-.099-.277-.153-.884-.49-2.095-1.162-3.368-2.436-1.278-1.278-1.95-2.49-2.442-3.375-.052-.094-.101-.184-.15-.27l.94-.939.462-.462c.574-.574.59-1.49.037-2.044L3.795.424c-.552-.553-1.47-.536-2.043.038l-.784.788.022.021A4.53 4.53 0 0 0 .344 2.41a4.76 4.76 0 0 0-.287 1.155C-.31 6.608 1.08 9.389 4.854 13.163c5.217 5.216 9.42 4.822 9.602 4.803a4.696 4.696 0 0 0 1.158-.291c.413-.162.8-.38 1.135-.643l.017.015.793-.777c.573-.574.59-1.49.037-2.045z" fill="#fff"/></svg>