<svg width="23" height="15" fill="none" xmlns="http://www.w3.org/2000/svg"><path d="M20.946 14.89c.517 0 .965-.14 1.345-.418l-6.516-5.368c-.156.092-.308.181-.45.267-.488.296-.884.527-1.188.692a7.993 7.993 0 0 1-1.213.508 4.377 4.377 0 0 1-1.412.259h-.025c-.437 0-.907-.086-1.412-.26a7.971 7.971 0 0 1-1.213-.507c-.304-.165-.7-.396-1.187-.692a57.385 57.385 0 0 0-.45-.269l-6.517 5.37c.38.278.829.418 1.346.418h18.892zM1.296 5.723A6.618 6.618 0 0 1 0 4.803v8.169l5.743-4.733a457.837 457.837 0 0 0-4.447-2.516zm20.42 0a389.6 389.6 0 0 0-4.458 2.518L23 12.971V4.804a6.87 6.87 0 0 1-1.283.92z" fill="#fff"/><path d="M20.947 0H2.054C1.395 0 .89.183.534.55.178.916 0 1.375 0 1.925c0 .444.235.925.706 1.444.47.518.97.925 1.501 1.22.291.17 1.168.673 2.632 1.508a875.366 875.366 0 0 1 3.362 1.93l.192.113.354.21c.278.166.509.3.693.402.184.102.406.217.667.344.261.127.507.222.738.285.231.064.445.095.642.095h.026c.196 0 .41-.031.641-.095.231-.063.477-.158.738-.285a14.882 14.882 0 0 0 1.361-.746 86.419 86.419 0 0 1 .546-.323l1.298-.743c1.064-.61 2.631-1.506 4.708-2.694a5.681 5.681 0 0 0 1.566-1.3c.418-.508.628-1.04.628-1.598 0-.465-.203-.863-.61-1.195A2.216 2.216 0 0 0 20.948 0z" fill="#fff"/></svg>